<?xml version="1.0" encoding="UTF-8"?>
<!DOCTYPE svg PUBLIC "-//W3C//DTD SVG 1.1//EN" "http://www.w3.org/Graphics/SVG/1.1/DTD/svg11.dtd">
<!-- Creator: CorelDRAW X8 -->
<svg xmlns="http://www.w3.org/2000/svg" xml:space="preserve" width="100%" height="100%" version="1.1" style="shape-rendering:geometricPrecision; text-rendering:geometricPrecision; image-rendering:optimizeQuality; fill-rule:evenodd; clip-rule:evenodd"
viewBox="0 0 82794 79458"
 xmlns:xlink="http://www.w3.org/1999/xlink">
 <defs>
  <style type="text/css">
   <![CDATA[
    .fil0 {fill:white}
   ]]>
  </style>
 </defs>
 <g id="Layer_x0020_1">
  <metadata id="CorelCorpID_0Corel-Layer"/>
  <g>
   <path id="Fill-13" class="fil0" d="M72951 19860c-1979,-1040 -4303,-1951 -5172,-2281 -299,-215 -490,-357 -490,-357 0,0 -11721,-8385 -16889,-10559 -5168,-2175 -14155,-6909 -23281,-6653 -7206,202 -11652,1540 -13207,1913 -1842,442 -3074,962 -1056,1913 676,318 3557,2034 7055,4031 5110,2917 11537,6434 14329,7074 2674,612 7078,1510 12705,1391 6422,-136 9545,2604 10177,3604 -1150,-1632 -5526,-2944 -11363,-2583 -5618,347 -10133,-29 -12763,-811 -5153,-1532 -10674,-3833 -15317,-6006 -1909,581 -3087,1070 -3801,1372 -1620,686 -3136,1919 -864,2560 1624,458 16814,5892 21236,6156 2514,150 6637,299 11714,-659 5745,-1084 8737,1275 9439,2189 -1794,2725 -2968,5894 -2632,9416 -21003,-3703 -27707,-5621 -32450,-6436 -8291,-1425 -18824,5599 -20116,14298 -734,4943 527,9561 3530,13833 3325,4729 7699,8809 8336,9675 406,739 274,2691 302,4005 31,1475 1887,2801 2968,2899 644,58 13079,3944 13079,3944l18423 5670c0,0 280,-1272 335,-1808 141,-1362 -896,-4726 -5213,-5982 -6355,-1912 -7604,-2275 -8957,-2682 -728,-219 -217,-230 911,-1121 1925,-1633 3574,-3836 4417,-5628 3760,-7994 -972,-15113 -972,-15113 0,0 2953,3101 4063,8524 1386,6774 -3206,12148 -3206,12148l2740 795c0,0 17700,-17827 19429,-19752 1460,-1625 3999,-2650 5289,-3069 4721,-1370 10625,-4015 12126,-4965 1501,-950 3341,-4306 3803,-5135 461,-829 1067,-1922 1185,-3157 41,-434 -2482,-3800 -2482,-3800 0,0 -4036,-6826 -7363,-8850l3 -3zm0 0l0 0 0 0zm-51514 54931c-1047,623 -1410,2276 114,3168 1353,712 5898,-1778 5898,-1778l-4558 -1437c0,0 -715,-301 -1454,47z" inkscape:connector-curvature="0"/>
  </g>
 </g>
</svg>
